REM DIRINDEX 1\3,1\2\4,1\2\5,1\2\6
REM DIRNAME cjc137,folder01,folder02,folder03,folder04,folder05
TITLE ""
FILE "115.mp3" MP3
  TRACK 01 AUDIO
    TITLE "0:"
    INDEX 01 00:00:00
  TRACK 02 AUDIO
    TITLE "4:cjc137_4749"
    INDEX 01 00:00:03
  TRACK 03 AUDIO
    TITLE "0:"
    INDEX 01 00:01:30
  TRACK 04 AUDIO
    TITLE "6:cjc137_4750"
    INDEX 01 00:01:38
  TRACK 05 AUDIO
    TITLE "0:"
    INDEX 01 00:02:51
  TRACK 06 AUDIO
    TITLE "5:cjc137_4751"
    INDEX 01 00:02:61
  TRACK 07 AUDIO
    TITLE "0:"
    INDEX 01 00:04:13
  TRACK 08 AUDIO
    TITLE "4:cjc137_4752"
    INDEX 01 00:05:22
  TRACK 09 AUDIO
    TITLE "0:"
    INDEX 01 00:06:61
  TRACK 10 AUDIO
    TITLE "6:cjc137_4753"
    INDEX 01 00:06:67
  TRACK 11 AUDIO
    TITLE "0:"
    INDEX 01 00:08:13
  TRACK 12 AUDIO
    TITLE "5:cjc137_4754"
    INDEX 01 00:08:19
  TRACK 13 AUDIO
    TITLE "0:"
    INDEX 01 00:09:59
  TRACK 14 AUDIO
    TITLE "4:cjc137_4755"
    INDEX 01 00:10:65
  TRACK 15 AUDIO
    TITLE "0:"
    INDEX 01 00:12:03
  TRACK 16 AUDIO
    TITLE "6:cjc137_4756"
    INDEX 01 00:12:11
  TRACK 17 AUDIO
    TITLE "0:"
    INDEX 01 00:13:20
  TRACK 18 AUDIO
    TITLE "5:cjc137_4757"
    INDEX 01 00:13:24
  TRACK 19 AUDIO
    TITLE "0:"
    INDEX 01 00:14:41
  TRACK 20 AUDIO
    TITLE "4:cjc137_4758"
    INDEX 01 00:15:46
  TRACK 21 AUDIO
    TITLE "0:"
    INDEX 01 00:16:59
  TRACK 22 AUDIO
    TITLE "6:cjc137_4759"
    INDEX 01 00:16:69
  TRACK 23 AUDIO
    TITLE "0:"
    INDEX 01 00:18:01
  TRACK 24 AUDIO
    TITLE "5:cjc137_4760"
    INDEX 01 00:18:07
  TRACK 25 AUDIO
    TITLE "0:"
    INDEX 01 00:19:22
  TRACK 26 AUDIO
    TITLE "4:cjc137_4761"
    INDEX 01 00:20:28
  TRACK 27 AUDIO
    TITLE "0:"
    INDEX 01 00:21:58
  TRACK 28 AUDIO
    TITLE "6:cjc137_4762"
    INDEX 01 00:21:62
  TRACK 29 AUDIO
    TITLE "0:"
    INDEX 01 00:23:10
  TRACK 30 AUDIO
    TITLE "5:cjc137_4763"
    INDEX 01 00:23:14
  TRACK 31 AUDIO
    TITLE "0:"
    INDEX 01 00:24:43
  TRACK 32 AUDIO
    TITLE "4:cjc137_4764"
    INDEX 01 00:25:52
  TRACK 33 AUDIO
    TITLE "0:"
    INDEX 01 00:26:52
  TRACK 34 AUDIO
    TITLE "6:cjc137_4765"
    INDEX 01 00:26:64
  TRACK 35 AUDIO
    TITLE "0:"
    INDEX 01 00:28:06
  TRACK 36 AUDIO
    TITLE "5:cjc137_4766"
    INDEX 01 00:28:12
  TRACK 37 AUDIO
    TITLE "0:"
    INDEX 01 00:29:11
  TRACK 38 AUDIO
    TITLE "4:cjc137_4767"
    INDEX 01 00:30:26
  TRACK 39 AUDIO
    TITLE "0:"
    INDEX 01 00:31:45
  TRACK 40 AUDIO
    TITLE "6:cjc137_4768"
    INDEX 01 00:31:51
  TRACK 41 AUDIO
    TITLE "0:"
    INDEX 01 00:33:22
  TRACK 42 AUDIO
    TITLE "5:cjc137_4769"
    INDEX 01 00:33:28
  TRACK 43 AUDIO
    TITLE "0:"
    INDEX 01 00:34:49
  TRACK 44 AUDIO
    TITLE "4:cjc137_4770"
    INDEX 01 00:35:55
  TRACK 45 AUDIO
    TITLE "0:"
    INDEX 01 00:37:01
  TRACK 46 AUDIO
    TITLE "6:cjc137_4771"
    INDEX 01 00:37:07
  TRACK 47 AUDIO
    TITLE "0:"
    INDEX 01 00:38:26
  TRACK 48 AUDIO
    TITLE "5:cjc137_4772"
    INDEX 01 00:38:33
  TRACK 49 AUDIO
    TITLE "0:"
    INDEX 01 00:39:56
  TRACK 50 AUDIO
    TITLE "4:cjc137_4773"
    INDEX 01 00:40:62
  TRACK 51 AUDIO
    TITLE "0:"
    INDEX 01 00:42:02
  TRACK 52 AUDIO
    TITLE "6:cjc137_4774"
    INDEX 01 00:42:06
  TRACK 53 AUDIO
    TITLE "0:"
    INDEX 01 00:43:23
  TRACK 54 AUDIO
    TITLE "5:cjc137_4775"
    INDEX 01 00:43:27
  TRACK 55 AUDIO
    TITLE "0:"
    INDEX 01 00:44:44
  TRACK 56 AUDIO
    TITLE "4:cjc137_4776"
    INDEX 01 00:45:51
  TRACK 57 AUDIO
    TITLE "0:"
    INDEX 01 00:46:72
  TRACK 58 AUDIO
    TITLE "6:cjc137_4777"
    INDEX 01 00:47:01
  TRACK 59 AUDIO
    TITLE "0:"
    INDEX 01 00:48:20
  TRACK 60 AUDIO
    TITLE "5:cjc137_4778"
    INDEX 01 00:48:28
  TRACK 61 AUDIO
    TITLE "0:"
    INDEX 01 00:49:49
  TRACK 62 AUDIO
    TITLE "4:cjc137_4779"
    INDEX 01 00:50:56
  TRACK 63 AUDIO
    TITLE "0:"
    INDEX 01 00:51:60
  TRACK 64 AUDIO
    TITLE "6:cjc137_4780"
    INDEX 01 00:51:65
  TRACK 65 AUDIO
    TITLE "0:"
    INDEX 01 00:52:73
  TRACK 66 AUDIO
    TITLE "5:cjc137_4781"
    INDEX 01 00:53:04
  TRACK 67 AUDIO
    TITLE "0:"
    INDEX 01 00:54:11
  TRACK 68 AUDIO
    TITLE "4:cjc137_4782"
    INDEX 01 00:55:16
  TRACK 69 AUDIO
    TITLE "0:"
    INDEX 01 00:56:24
  TRACK 70 AUDIO
    TITLE "6:cjc137_4783"
    INDEX 01 00:56:25
  TRACK 71 AUDIO
    TITLE "0:"
    INDEX 01 00:57:25
  TRACK 72 AUDIO
    TITLE "5:cjc137_4784"
    INDEX 01 00:57:29
  TRACK 73 AUDIO
    TITLE "0:"
    INDEX 01 00:58:34
  TRACK 74 AUDIO
    TITLE "4:cjc137_4785"
    INDEX 01 00:59:41
  TRACK 75 AUDIO
    TITLE "0:"
    INDEX 01 01:00:60
  TRACK 76 AUDIO
    TITLE "6:cjc137_4786"
    INDEX 01 01:00:68
  TRACK 77 AUDIO
    TITLE "0:"
    INDEX 01 01:02:06
  TRACK 78 AUDIO
    TITLE "5:cjc137_4787"
    INDEX 01 01:02:12
  TRACK 79 AUDIO
    TITLE "0:"
    INDEX 01 01:03:31
  TRACK 80 AUDIO
    TITLE "4:cjc137_4788"
    INDEX 01 01:04:41
  TRACK 81 AUDIO
    TITLE "0:"
    INDEX 01 01:05:62
  TRACK 82 AUDIO
    TITLE "6:cjc137_4789"
    INDEX 01 01:05:69
  TRACK 83 AUDIO
    TITLE "0:"
    INDEX 01 01:06:61
  TRACK 84 AUDIO
    TITLE "5:cjc137_4790"
    INDEX 01 01:06:65
  TRACK 85 AUDIO
    TITLE "0:"
    INDEX 01 01:08:15
